{
    "asset" : {
        "generator" : "Khronos glTF Blender I/O v1.4.40",
        "version" : "2.0"
    },
    "scene" : 0,
    "scenes" : [
        {
            "name" : "Scene",
            "nodes" : [
                0
            ]
        }
    ],
    "nodes" : [
        {
            "mesh" : 0,
            "name" : "ara_low_ar"
        }
    ],
    "materials" : [
        {
            "doubleSided" : true,
            "name" : "ara.001",
            "normalTexture" : {
                "index" : 0,
                "texCoord" : 0
            },
            "pbrMetallicRoughness" : {
                "baseColorTexture" : {
                    "index" : 1,
                    "texCoord" : 0
                },
                "metallicFactor" : 0,
                "metallicRoughnessTexture" : {
                    "index" : 2,
                    "texCoord" : 0
                }
            }
        }
    ],
    "meshes" : [
        {
            "name" : "ara2.004",
            "primitives" : [
                {
                    "attributes" : {
                        "POSITION" : 0,
                        "NORMAL" : 1,
                        "TEXCOORD_0" : 2,
                        "COLOR_0" : 3
                    },
                    "indices" : 4,
                    "material" : 0
                }
            ]
        }
    ],
    "textures" : [
        {
            "sampler" : 0,
            "source" : 0
        },
        {
            "sampler" : 0,
            "source" : 1
        },
        {
            "sampler" : 0,
            "source" : 2
        }
    ],
    "images" : [
        {
            "mimeType" : "image/png",
            "name" : "normal_baked_2k",
            "uri" : "normal_baked_2k.png"
        },
        {
            "mimeType" : "image/jpeg",
            "name" : "diffuse2_baked_2k",
            "uri" : "diffuse2_baked_2k.jpg"
        },
        {
            "mimeType" : "image/png",
            "name" : "roughness_baked_2k",
            "uri" : "roughness_baked_2k.png"
        }
    ],
    "accessors" : [
        {
            "bufferView" : 0,
            "componentType" : 5126,
            "count" : 107292,
            "max" : [
                0.22893081605434418,
                1.0431578159332275,
                0.18218053877353668
            ],
            "min" : [
                -0.24369460344314575,
                0.01581782102584839,
                -0.23650187253952026
            ],
            "type" : "VEC3"
        },
        {
            "bufferView" : 1,
            "componentType" : 5126,
            "count" : 107292,
            "type" : "VEC3"
        },
        {
            "bufferView" : 2,
            "componentType" : 5126,
            "count" : 107292,
            "type" : "VEC2"
        },
        {
            "bufferView" : 3,
            "componentType" : 5123,
            "count" : 107292,
            "normalized" : true,
            "type" : "VEC4"
        },
        {
            "bufferView" : 4,
            "componentType" : 5125,
            "count" : 107406,
            "type" : "SCALAR"
        }
    ],
    "bufferViews" : [
        {
            "buffer" : 0,
            "byteLength" : 1287504,
            "byteOffset" : 0
        },
        {
            "buffer" : 0,
            "byteLength" : 1287504,
            "byteOffset" : 1287504
        },
        {
            "buffer" : 0,
            "byteLength" : 858336,
            "byteOffset" : 2575008
        },
        {
            "buffer" : 0,
            "byteLength" : 858336,
            "byteOffset" : 3433344
        },
        {
            "buffer" : 0,
            "byteLength" : 429624,
            "byteOffset" : 4291680
        }
    ],
    "samplers" : [
        {
            "magFilter" : 9729,
            "minFilter" : 9986
        }
    ],
    "buffers" : [
        {
            "byteLength" : 4721304,
            "uri" : "ara.bin"
        }
    ]
}
