{
    "asset" : {
        "generator" : "Khronos glTF Blender I/O v1.4.40",
        "version" : "2.0"
    },
    "scene" : 0,
    "scenes" : [
        {
            "name" : "Scene",
            "nodes" : [
                0
            ]
        }
    ],
    "nodes" : [
        {
            "mesh" : 0,
            "name" : "texturedMesh.001"
        }
    ],
    "materials" : [
        {
            "doubleSided" : true,
            "name" : "TextureAtlas_1001.001",
            "normalTexture" : {
                "index" : 0,
                "texCoord" : 0
            },
            "pbrMetallicRoughness" : {
                "baseColorTexture" : {
                    "index" : 1,
                    "texCoord" : 0
                },
                "metallicFactor" : 0
            }
        }
    ],
    "meshes" : [
        {
            "name" : "texturedMesh.001",
            "primitives" : [
                {
                    "attributes" : {
                        "POSITION" : 0,
                        "NORMAL" : 1,
                        "TEXCOORD_0" : 2
                    },
                    "indices" : 3,
                    "material" : 0
                }
            ]
        }
    ],
    "textures" : [
        {
            "sampler" : 0,
            "source" : 0
        },
        {
            "sampler" : 0,
            "source" : 1
        }
    ],
    "images" : [
        {
            "mimeType" : "image/png",
            "name" : "sigillata_normal_2k",
            "uri" : "sigillata_normal_2k.png"
        },
        {
            "mimeType" : "image/jpeg",
            "name" : "sigillata_diffuse_2k",
            "uri" : "sigillata_diffuse_2k.jpg"
        }
    ],
    "accessors" : [
        {
            "bufferView" : 0,
            "componentType" : 5126,
            "count" : 62409,
            "max" : [
                0.14457644522190094,
                0.07937876135110855,
                0.15750697255134583
            ],
            "min" : [
                -0.1589701771736145,
                -0.08226563781499863,
                -0.1458379179239273
            ],
            "type" : "VEC3"
        },
        {
            "bufferView" : 1,
            "componentType" : 5126,
            "count" : 62409,
            "type" : "VEC3"
        },
        {
            "bufferView" : 2,
            "componentType" : 5126,
            "count" : 62409,
            "type" : "VEC2"
        },
        {
            "bufferView" : 3,
            "componentType" : 5123,
            "count" : 256398,
            "type" : "SCALAR"
        }
    ],
    "bufferViews" : [
        {
            "buffer" : 0,
            "byteLength" : 748908,
            "byteOffset" : 0
        },
        {
            "buffer" : 0,
            "byteLength" : 748908,
            "byteOffset" : 748908
        },
        {
            "buffer" : 0,
            "byteLength" : 499272,
            "byteOffset" : 1497816
        },
        {
            "buffer" : 0,
            "byteLength" : 512796,
            "byteOffset" : 1997088
        }
    ],
    "samplers" : [
        {
            "magFilter" : 9729,
            "minFilter" : 9986
        }
    ],
    "buffers" : [
        {
            "byteLength" : 2509884,
            "uri" : "sigillata_gltf.bin"
        }
    ]
}
