{
    "asset" : {
        "generator" : "Khronos glTF Blender I/O v1.4.40",
        "version" : "2.0"
    },
    "scene" : 0,
    "scenes" : [
        {
            "name" : "Scene",
            "nodes" : [
                0
            ]
        }
    ],
    "nodes" : [
        {
            "mesh" : 0,
            "name" : "Cube",
            "translation" : [
                0.02950849011540413,
                -0.33483704924583435,
                -0.10021088272333145
            ]
        }
    ],
    "materials" : [
        {
            "doubleSided" : true,
            "name" : "Material",
            "pbrMetallicRoughness" : {
                "baseColorFactor" : [
                    0.014669502153992653,
                    0.014669502153992653,
                    0.014669502153992653,
                    1
                ],
                "metallicFactor" : 0
            }
        },
        {
            "doubleSided" : true,
            "name" : "TextureAtlas_1001.002",
            "pbrMetallicRoughness" : {
                "baseColorTexture" : {
                    "index" : 0,
                    "texCoord" : 0
                },
                "metallicFactor" : 0
            }
        },
        {
            "doubleSided" : true,
            "name" : "TextureAtlas_1002.002",
            "pbrMetallicRoughness" : {
                "baseColorTexture" : {
                    "index" : 1,
                    "texCoord" : 0
                },
                "metallicFactor" : 0
            }
        },
        {
            "doubleSided" : true,
            "name" : "TextureAtlas_1003.002",
            "pbrMetallicRoughness" : {
                "baseColorTexture" : {
                    "index" : 2,
                    "texCoord" : 0
                },
                "metallicFactor" : 0
            }
        },
        {
            "doubleSided" : true,
            "name" : "TextureAtlas_1004.002",
            "pbrMetallicRoughness" : {
                "baseColorTexture" : {
                    "index" : 3,
                    "texCoord" : 0
                },
                "metallicFactor" : 0
            }
        }
    ],
    "meshes" : [
        {
            "name" : "Cube.004",
            "primitives" : [
                {
                    "attributes" : {
                        "POSITION" : 0,
                        "NORMAL" : 1,
                        "TEXCOORD_0" : 2
                    },
                    "indices" : 3,
                    "material" : 0
                },
                {
                    "attributes" : {
                        "POSITION" : 4,
                        "NORMAL" : 5,
                        "TEXCOORD_0" : 6
                    },
                    "indices" : 7,
                    "material" : 1
                },
                {
                    "attributes" : {
                        "POSITION" : 8,
                        "NORMAL" : 9,
                        "TEXCOORD_0" : 10
                    },
                    "indices" : 11,
                    "material" : 2
                },
                {
                    "attributes" : {
                        "POSITION" : 12,
                        "NORMAL" : 13,
                        "TEXCOORD_0" : 14
                    },
                    "indices" : 15,
                    "material" : 3
                },
                {
                    "attributes" : {
                        "POSITION" : 16,
                        "NORMAL" : 17,
                        "TEXCOORD_0" : 18
                    },
                    "indices" : 19,
                    "material" : 4
                }
            ]
        }
    ],
    "textures" : [
        {
            "sampler" : 0,
            "source" : 0
        },
        {
            "sampler" : 0,
            "source" : 1
        },
        {
            "sampler" : 0,
            "source" : 2
        },
        {
            "sampler" : 0,
            "source" : 3
        }
    ],
    "images" : [
        {
            "mimeType" : "image/jpeg",
            "name" : "texture_1001_2k",
            "uri" : "texture_1001_2k.jpg"
        },
        {
            "mimeType" : "image/jpeg",
            "name" : "texture_1002_2k",
            "uri" : "texture_1002_2k.jpg"
        },
        {
            "mimeType" : "image/jpeg",
            "name" : "texture_1003_2k",
            "uri" : "texture_1003_2k.jpg"
        },
        {
            "mimeType" : "image/jpeg",
            "name" : "texture_1004_2k",
            "uri" : "texture_1004_2k.jpg"
        }
    ],
    "accessors" : [
        {
            "bufferView" : 0,
            "componentType" : 5126,
            "count" : 48,
            "max" : [
                2.2297563552856445,
                0.175384983420372,
                4.933581352233887
            ],
            "min" : [
                -2.2297563552856445,
                -0.339134156703949,
                -4.933581352233887
            ],
            "type" : "VEC3"
        },
        {
            "bufferView" : 1,
            "componentType" : 5126,
            "count" : 48,
            "type" : "VEC3"
        },
        {
            "bufferView" : 2,
            "componentType" : 5126,
            "count" : 48,
            "type" : "VEC2"
        },
        {
            "bufferView" : 3,
            "componentType" : 5123,
            "count" : 84,
            "type" : "SCALAR"
        },
        {
            "bufferView" : 4,
            "componentType" : 5126,
            "count" : 231532,
            "max" : [
                1.9945558309555054,
                0.14425966143608093,
                4.762955665588379
            ],
            "min" : [
                -1.9784411191940308,
                -0.10686543583869934,
                -4.751729965209961
            ],
            "type" : "VEC3"
        },
        {
            "bufferView" : 5,
            "componentType" : 5126,
            "count" : 231532,
            "type" : "VEC3"
        },
        {
            "bufferView" : 6,
            "componentType" : 5126,
            "count" : 231532,
            "type" : "VEC2"
        },
        {
            "bufferView" : 7,
            "componentType" : 5125,
            "count" : 1201683,
            "type" : "SCALAR"
        },
        {
            "bufferView" : 8,
            "componentType" : 5126,
            "count" : 195749,
            "max" : [
                1.9945558309555054,
                0.14825884997844696,
                4.762955665588379
            ],
            "min" : [
                -1.9784412384033203,
                -0.10354289412498474,
                -4.751729965209961
            ],
            "type" : "VEC3"
        },
        {
            "bufferView" : 9,
            "componentType" : 5126,
            "count" : 195749,
            "type" : "VEC3"
        },
        {
            "bufferView" : 10,
            "componentType" : 5126,
            "count" : 195749,
            "type" : "VEC2"
        },
        {
            "bufferView" : 11,
            "componentType" : 5125,
            "count" : 1051620,
            "type" : "SCALAR"
        },
        {
            "bufferView" : 12,
            "componentType" : 5126,
            "count" : 180857,
            "max" : [
                1.9945558309555054,
                0.14885540306568146,
                4.762955665588379
            ],
            "min" : [
                -1.9784412384033203,
                -0.10544201731681824,
                -4.751729965209961
            ],
            "type" : "VEC3"
        },
        {
            "bufferView" : 13,
            "componentType" : 5126,
            "count" : 180857,
            "type" : "VEC3"
        },
        {
            "bufferView" : 14,
            "componentType" : 5126,
            "count" : 180857,
            "type" : "VEC2"
        },
        {
            "bufferView" : 15,
            "componentType" : 5125,
            "count" : 914706,
            "type" : "SCALAR"
        },
        {
            "bufferView" : 16,
            "componentType" : 5126,
            "count" : 42472,
            "max" : [
                1.9945558309555054,
                0.14819428324699402,
                4.762955665588379
            ],
            "min" : [
                -1.9784412384033203,
                -0.10297691822052002,
                -4.751729488372803
            ],
            "type" : "VEC3"
        },
        {
            "bufferView" : 17,
            "componentType" : 5126,
            "count" : 42472,
            "type" : "VEC3"
        },
        {
            "bufferView" : 18,
            "componentType" : 5126,
            "count" : 42472,
            "type" : "VEC2"
        },
        {
            "bufferView" : 19,
            "componentType" : 5123,
            "count" : 188958,
            "type" : "SCALAR"
        }
    ],
    "bufferViews" : [
        {
            "buffer" : 0,
            "byteLength" : 576,
            "byteOffset" : 0
        },
        {
            "buffer" : 0,
            "byteLength" : 576,
            "byteOffset" : 576
        },
        {
            "buffer" : 0,
            "byteLength" : 384,
            "byteOffset" : 1152
        },
        {
            "buffer" : 0,
            "byteLength" : 168,
            "byteOffset" : 1536
        },
        {
            "buffer" : 0,
            "byteLength" : 2778384,
            "byteOffset" : 1704
        },
        {
            "buffer" : 0,
            "byteLength" : 2778384,
            "byteOffset" : 2780088
        },
        {
            "buffer" : 0,
            "byteLength" : 1852256,
            "byteOffset" : 5558472
        },
        {
            "buffer" : 0,
            "byteLength" : 4806732,
            "byteOffset" : 7410728
        },
        {
            "buffer" : 0,
            "byteLength" : 2348988,
            "byteOffset" : 12217460
        },
        {
            "buffer" : 0,
            "byteLength" : 2348988,
            "byteOffset" : 14566448
        },
        {
            "buffer" : 0,
            "byteLength" : 1565992,
            "byteOffset" : 16915436
        },
        {
            "buffer" : 0,
            "byteLength" : 4206480,
            "byteOffset" : 18481428
        },
        {
            "buffer" : 0,
            "byteLength" : 2170284,
            "byteOffset" : 22687908
        },
        {
            "buffer" : 0,
            "byteLength" : 2170284,
            "byteOffset" : 24858192
        },
        {
            "buffer" : 0,
            "byteLength" : 1446856,
            "byteOffset" : 27028476
        },
        {
            "buffer" : 0,
            "byteLength" : 3658824,
            "byteOffset" : 28475332
        },
        {
            "buffer" : 0,
            "byteLength" : 509664,
            "byteOffset" : 32134156
        },
        {
            "buffer" : 0,
            "byteLength" : 509664,
            "byteOffset" : 32643820
        },
        {
            "buffer" : 0,
            "byteLength" : 339776,
            "byteOffset" : 33153484
        },
        {
            "buffer" : 0,
            "byteLength" : 377916,
            "byteOffset" : 33493260
        }
    ],
    "samplers" : [
        {
            "magFilter" : 9729,
            "minFilter" : 9986
        }
    ],
    "buffers" : [
        {
            "byteLength" : 33871176,
            "uri" : "via.bin"
        }
    ]
}
