{
    "asset" : {
        "generator" : "Khronos glTF Blender I/O v1.4.40",
        "version" : "2.0"
    },
    "scene" : 0,
    "scenes" : [
        {
            "name" : "Scene",
            "nodes" : [
                0
            ]
        }
    ],
    "nodes" : [
        {
            "mesh" : 0,
            "name" : "Cube",
            "translation" : [
                0.02950849011540413,
                -0.33483704924583435,
                -0.10021088272333145
            ]
        }
    ],
    "materials" : [
        {
            "doubleSided" : true,
            "name" : "Material",
            "pbrMetallicRoughness" : {
                "baseColorFactor" : [
                    0.014669502153992653,
                    0.014669502153992653,
                    0.014669502153992653,
                    1
                ],
                "metallicFactor" : 0
            }
        },
        {
            "doubleSided" : true,
            "name" : "TextureAtlas_1001.002",
            "pbrMetallicRoughness" : {
                "baseColorTexture" : {
                    "index" : 0,
                    "texCoord" : 0
                },
                "metallicFactor" : 0
            }
        },
        {
            "doubleSided" : true,
            "name" : "TextureAtlas_1002.002",
            "pbrMetallicRoughness" : {
                "baseColorTexture" : {
                    "index" : 1,
                    "texCoord" : 0
                },
                "metallicFactor" : 0
            }
        },
        {
            "doubleSided" : true,
            "name" : "TextureAtlas_1003.002",
            "pbrMetallicRoughness" : {
                "baseColorTexture" : {
                    "index" : 2,
                    "texCoord" : 0
                },
                "metallicFactor" : 0
            }
        },
        {
            "doubleSided" : true,
            "name" : "TextureAtlas_1004.002",
            "pbrMetallicRoughness" : {
                "baseColorTexture" : {
                    "index" : 3,
                    "texCoord" : 0
                },
                "metallicFactor" : 0
            }
        }
    ],
    "meshes" : [
        {
            "name" : "Cube.004",
            "primitives" : [
                {
                    "attributes" : {
                        "POSITION" : 0,
                        "NORMAL" : 1,
                        "TEXCOORD_0" : 2
                    },
                    "indices" : 3,
                    "material" : 0
                },
                {
                    "attributes" : {
                        "POSITION" : 4,
                        "NORMAL" : 5,
                        "TEXCOORD_0" : 6
                    },
                    "indices" : 7,
                    "material" : 1
                },
                {
                    "attributes" : {
                        "POSITION" : 8,
                        "NORMAL" : 9,
                        "TEXCOORD_0" : 10
                    },
                    "indices" : 11,
                    "material" : 2
                },
                {
                    "attributes" : {
                        "POSITION" : 12,
                        "NORMAL" : 13,
                        "TEXCOORD_0" : 14
                    },
                    "indices" : 15,
                    "material" : 3
                },
                {
                    "attributes" : {
                        "POSITION" : 16,
                        "NORMAL" : 17,
                        "TEXCOORD_0" : 18
                    },
                    "indices" : 19,
                    "material" : 4
                }
            ]
        }
    ],
    "textures" : [
        {
            "sampler" : 0,
            "source" : 0
        },
        {
            "sampler" : 0,
            "source" : 1
        },
        {
            "sampler" : 0,
            "source" : 2
        },
        {
            "sampler" : 0,
            "source" : 3
        }
    ],
    "images" : [
        {
            "mimeType" : "image/jpeg",
            "name" : "texture_1001_2k",
            "uri" : "texture_1001_2k.jpg"
        },
        {
            "mimeType" : "image/jpeg",
            "name" : "texture_1002_2k",
            "uri" : "texture_1002_2k.jpg"
        },
        {
            "mimeType" : "image/jpeg",
            "name" : "texture_1003_2k",
            "uri" : "texture_1003_2k.jpg"
        },
        {
            "mimeType" : "image/jpeg",
            "name" : "texture_1004_2k",
            "uri" : "texture_1004_2k.jpg"
        }
    ],
    "accessors" : [
        {
            "bufferView" : 0,
            "componentType" : 5126,
            "count" : 56,
            "max" : [
                2.2297563552856445,
                0.175384983420372,
                4.933581352233887
            ],
            "min" : [
                -2.2297563552856445,
                -0.339134156703949,
                -4.933581352233887
            ],
            "type" : "VEC3"
        },
        {
            "bufferView" : 1,
            "componentType" : 5126,
            "count" : 56,
            "type" : "VEC3"
        },
        {
            "bufferView" : 2,
            "componentType" : 5126,
            "count" : 56,
            "type" : "VEC2"
        },
        {
            "bufferView" : 3,
            "componentType" : 5123,
            "count" : 84,
            "type" : "SCALAR"
        },
        {
            "bufferView" : 4,
            "componentType" : 5126,
            "count" : 53410,
            "max" : [
                1.9946279525756836,
                0.14425966143608093,
                4.763016223907471
            ],
            "min" : [
                -1.9784934520721436,
                -0.10692537575960159,
                -4.751962661743164
            ],
            "type" : "VEC3"
        },
        {
            "bufferView" : 5,
            "componentType" : 5126,
            "count" : 53410,
            "type" : "VEC3"
        },
        {
            "bufferView" : 6,
            "componentType" : 5126,
            "count" : 53410,
            "type" : "VEC2"
        },
        {
            "bufferView" : 7,
            "componentType" : 5123,
            "count" : 214782,
            "type" : "SCALAR"
        },
        {
            "bufferView" : 8,
            "componentType" : 5126,
            "count" : 43805,
            "max" : [
                1.994673490524292,
                0.1482023149728775,
                4.7630815505981445
            ],
            "min" : [
                -1.9790003299713135,
                -0.10385571420192719,
                -4.751885414123535
            ],
            "type" : "VEC3"
        },
        {
            "bufferView" : 9,
            "componentType" : 5126,
            "count" : 43805,
            "type" : "VEC3"
        },
        {
            "bufferView" : 10,
            "componentType" : 5126,
            "count" : 43805,
            "type" : "VEC2"
        },
        {
            "bufferView" : 11,
            "componentType" : 5123,
            "count" : 197937,
            "type" : "SCALAR"
        },
        {
            "bufferView" : 12,
            "componentType" : 5126,
            "count" : 50310,
            "max" : [
                1.994659662246704,
                0.1486332267522812,
                4.763047218322754
            ],
            "min" : [
                -1.9785840511322021,
                -0.10511979460716248,
                -4.751962661743164
            ],
            "type" : "VEC3"
        },
        {
            "bufferView" : 13,
            "componentType" : 5126,
            "count" : 50310,
            "type" : "VEC3"
        },
        {
            "bufferView" : 14,
            "componentType" : 5126,
            "count" : 50310,
            "type" : "VEC2"
        },
        {
            "bufferView" : 15,
            "componentType" : 5123,
            "count" : 205173,
            "type" : "SCALAR"
        },
        {
            "bufferView" : 16,
            "componentType" : 5126,
            "count" : 15717,
            "max" : [
                1.9948543310165405,
                0.14002130925655365,
                4.762989044189453
            ],
            "min" : [
                -1.9784899950027466,
                -0.10308913886547089,
                -4.751755237579346
            ],
            "type" : "VEC3"
        },
        {
            "bufferView" : 17,
            "componentType" : 5126,
            "count" : 15717,
            "type" : "VEC3"
        },
        {
            "bufferView" : 18,
            "componentType" : 5126,
            "count" : 15717,
            "type" : "VEC2"
        },
        {
            "bufferView" : 19,
            "componentType" : 5123,
            "count" : 53430,
            "type" : "SCALAR"
        }
    ],
    "bufferViews" : [
        {
            "buffer" : 0,
            "byteLength" : 672,
            "byteOffset" : 0
        },
        {
            "buffer" : 0,
            "byteLength" : 672,
            "byteOffset" : 672
        },
        {
            "buffer" : 0,
            "byteLength" : 448,
            "byteOffset" : 1344
        },
        {
            "buffer" : 0,
            "byteLength" : 168,
            "byteOffset" : 1792
        },
        {
            "buffer" : 0,
            "byteLength" : 640920,
            "byteOffset" : 1960
        },
        {
            "buffer" : 0,
            "byteLength" : 640920,
            "byteOffset" : 642880
        },
        {
            "buffer" : 0,
            "byteLength" : 427280,
            "byteOffset" : 1283800
        },
        {
            "buffer" : 0,
            "byteLength" : 429564,
            "byteOffset" : 1711080
        },
        {
            "buffer" : 0,
            "byteLength" : 525660,
            "byteOffset" : 2140644
        },
        {
            "buffer" : 0,
            "byteLength" : 525660,
            "byteOffset" : 2666304
        },
        {
            "buffer" : 0,
            "byteLength" : 350440,
            "byteOffset" : 3191964
        },
        {
            "buffer" : 0,
            "byteLength" : 395874,
            "byteOffset" : 3542404
        },
        {
            "buffer" : 0,
            "byteLength" : 603720,
            "byteOffset" : 3938280
        },
        {
            "buffer" : 0,
            "byteLength" : 603720,
            "byteOffset" : 4542000
        },
        {
            "buffer" : 0,
            "byteLength" : 402480,
            "byteOffset" : 5145720
        },
        {
            "buffer" : 0,
            "byteLength" : 410346,
            "byteOffset" : 5548200
        },
        {
            "buffer" : 0,
            "byteLength" : 188604,
            "byteOffset" : 5958548
        },
        {
            "buffer" : 0,
            "byteLength" : 188604,
            "byteOffset" : 6147152
        },
        {
            "buffer" : 0,
            "byteLength" : 125736,
            "byteOffset" : 6335756
        },
        {
            "buffer" : 0,
            "byteLength" : 106860,
            "byteOffset" : 6461492
        }
    ],
    "samplers" : [
        {
            "magFilter" : 9729,
            "minFilter" : 9986
        }
    ],
    "buffers" : [
        {
            "byteLength" : 6568352,
            "uri" : "via.bin"
        }
    ]
}
